<svg width="24" height="24" viewBox="0 0 24 24" fill="none" xmlns="http://www.w3.org/2000/svg">
<path d="M22.6836 16.875C22.6195 16.8242 17.9687 13.4719 16.6922 13.7125C16.0828 13.8203 15.7344 14.2359 15.0352 15.068C14.9227 15.2023 14.6523 15.5242 14.4422 15.7531C14.0003 15.609 13.5693 15.4336 13.1523 15.2281C11.0004 14.1805 9.26171 12.4418 8.21406 10.2898C8.00849 9.87298 7.83304 9.44193 7.68906 9C7.91875 8.78906 8.24062 8.51875 8.37812 8.40312C9.20625 7.70781 9.62266 7.35937 9.73047 6.74844C9.95156 5.48281 6.60156 0.8 6.56641 0.757813C6.41441 0.54068 6.21605 0.360049 5.98568 0.228987C5.75531 0.0979247 5.49869 0.0197095 5.23437 0C3.87656 0 0 5.02891 0 5.87578C0 5.925 0.0710938 10.9281 6.24062 17.2039C12.5102 23.3664 17.5125 23.4375 17.5617 23.4375C18.4094 23.4375 23.4375 19.5609 23.4375 18.2031C23.418 17.9397 23.3403 17.684 23.2099 17.4543C23.0795 17.2246 22.8997 17.0268 22.6836 16.875V16.875Z" fill="#0D0C0C"/>
</svg>
