<svg width="27" height="23" viewBox="0 0 27 23" fill="none" xmlns="http://www.w3.org/2000/svg">
<path d="M23.7717 4H20.9543L19.3989 1.5C18.812 0.5625 17.7848 0 16.7283 0H10.2717C9.21522 0 8.18804 0.5625 7.60109 1.5L6.04565 4H3.22826C1.43804 4 0 5.53125 0 7.4375V19.5625C0 21.4687 1.43804 23 3.22826 23H23.7717C25.562 23 27 21.4687 27 19.5625V7.4375C27 5.53125 25.562 4 23.7717 4ZM13.5 20.1875C9.47935 20.1875 6.22174 16.7187 6.22174 12.4375C6.22174 8.15625 9.47935 4.71875 13.5 4.71875C17.5207 4.71875 20.7783 8.1875 20.7783 12.4687C20.7783 16.7187 17.5207 20.1875 13.5 20.1875ZM23.3609 8.84375C23.3315 8.84375 23.3022 8.84375 23.2435 8.84375H22.0696C21.5413 8.8125 21.1304 8.34375 21.1598 7.78125C21.1891 7.25 21.5707 6.84375 22.0696 6.8125H23.2435C23.7717 6.78125 24.212 7.21875 24.2413 7.78125C24.2707 8.34375 23.8891 8.8125 23.3609 8.84375Z" fill="black"/>
<path d="M13.5 8.15624C11.2695 8.15624 9.44998 10.0937 9.44998 12.4687C9.44998 14.8437 11.2695 16.75 13.5 16.75C15.7304 16.75 17.55 14.8125 17.55 12.4375C17.55 10.0625 15.7304 8.15624 13.5 8.15624Z" fill="black"/>
</svg>
