<svg width="34" height="34" viewBox="0 0 34 34" fill="none" xmlns="http://www.w3.org/2000/svg">
<path d="M16.7 0C13.3971 0 10.1683 0.979438 7.42198 2.81446C4.67568 4.64948 2.5352 7.25766 1.27122 10.3092C0.00723591 13.3607 -0.32348 16.7185 0.320893 19.958C0.965266 23.1975 2.55579 26.1731 4.89132 28.5087C7.22686 30.8442 10.2025 32.4347 13.442 33.0791C16.6815 33.7235 20.0393 33.3928 23.0908 32.1288C26.1423 30.8648 28.7505 28.7243 30.5855 25.978C32.4206 23.2317 33.4 20.0029 33.4 16.7C33.3948 12.2725 31.6336 8.02781 28.5029 4.89709C25.3722 1.76636 21.1275 0.00522326 16.7 0V0ZM23.1401 20.9949C23.2851 21.135 23.4008 21.3025 23.4804 21.4877C23.5599 21.673 23.6018 21.8722 23.6036 22.0738C23.6053 22.2753 23.5669 22.4752 23.4906 22.6618C23.4142 22.8484 23.3015 23.0179 23.1589 23.1605C23.0164 23.303 22.8469 23.4157 22.6603 23.4921C22.4737 23.5684 22.2738 23.6068 22.0722 23.6051C21.8707 23.6033 21.6714 23.5614 21.4862 23.4819C21.301 23.4023 21.1335 23.2866 20.9934 23.1416L16.7 18.8467L12.4066 23.1416C12.1203 23.4182 11.7368 23.5712 11.3387 23.5678C10.9406 23.5643 10.5599 23.4046 10.2784 23.1231C9.99689 22.8417 9.83722 22.4609 9.83376 22.0628C9.8303 21.6648 9.98333 21.2813 10.2599 20.9949L14.5533 16.7L10.2599 12.4051C10.1149 12.265 9.99922 12.0975 9.91965 11.9123C9.84008 11.727 9.7982 11.5278 9.79645 11.3262C9.7947 11.1247 9.83311 10.9247 9.90945 10.7382C9.98578 10.5516 10.0985 10.3821 10.2411 10.2395C10.3836 10.097 10.5531 9.98426 10.7397 9.90792C10.9263 9.83159 11.1262 9.79318 11.3278 9.79493C11.5294 9.79668 11.7286 9.83856 11.9138 9.91813C12.099 9.99769 12.2665 10.1134 12.4066 10.2584L16.7 14.5533L20.9934 10.2584C21.1335 10.1134 21.301 9.99769 21.4862 9.91813C21.6714 9.83856 21.8707 9.79668 22.0722 9.79493C22.2738 9.79318 22.4737 9.83159 22.6603 9.90792C22.8469 9.98426 23.0164 10.097 23.1589 10.2395C23.3015 10.3821 23.4142 10.5516 23.4906 10.7382C23.5669 10.9247 23.6053 11.1247 23.6036 11.3262C23.6018 11.5278 23.5599 11.727 23.4804 11.9123C23.4008 12.0975 23.2851 12.265 23.1401 12.4051L18.8467 16.7L23.1401 20.9949Z" fill="white"/>
</svg>
