<svg width="26" height="18" viewBox="0 0 26 18" fill="none" xmlns="http://www.w3.org/2000/svg">
<path d="M16.523 10.0232L14.3873 12.1661C13.5213 13.0352 11.9975 13.054 11.1127 12.1661L8.9769 10.0232L1.30618 17.7189C1.59171 17.8509 1.90653 17.9297 2.24122 17.9297H23.2588C23.5935 17.9297 23.9082 17.851 24.1936 17.7189L16.523 10.0232Z" fill="black"/>
<path d="M23.2588 0H2.24121C1.90652 0 1.59171 0.0787911 1.30627 0.210823L9.50298 8.43472C9.50353 8.43527 9.50418 8.43537 9.50472 8.43592C9.50527 8.43647 9.50537 8.43721 9.50537 8.43721L12.1706 11.1112C12.4537 11.3943 13.0464 11.3943 13.3295 11.1112L15.9942 8.43766C15.9942 8.43766 15.9948 8.43647 15.9954 8.43592C15.9954 8.43592 15.9966 8.43527 15.9971 8.43472L24.1936 0.210774C23.9082 0.0786915 23.5935 0 23.2588 0Z" fill="black"/>
<path d="M0.238365 1.25568C0.0906445 1.5544 0 1.886 0 2.24121V15.6885C0 16.0437 0.0905449 16.3753 0.238315 16.674L7.92233 8.96509L0.238365 1.25568Z" fill="black"/>
<path d="M25.2616 1.25557L17.5777 8.96509L25.2616 16.6741C25.4093 16.3754 25.5 16.0438 25.5 15.6885V2.2412C25.5 1.8859 25.4093 1.5543 25.2616 1.25557Z" fill="black"/>
</svg>
