<svg width="16" height="14" viewBox="0 0 16 14" fill="none" xmlns="http://www.w3.org/2000/svg">
<path d="M14.0642 1.25424C13.263 0.449573 12.2024 0.00977337 11.0704 0.00977337C9.93835 0.00977337 8.87445 0.452831 8.07329 1.2575L7.65487 1.67776L7.22996 1.25099C6.42879 0.446315 5.36165 0 4.22965 0C3.10088 0 2.03699 0.443058 1.23907 1.24447C0.437901 2.04914 -0.00322582 3.11769 1.77609e-05 4.25466C1.77609e-05 5.39162 0.444388 6.45691 1.24555 7.26158L7.337 13.3797C7.42133 13.4644 7.53485 13.51 7.64514 13.51C7.75542 13.51 7.86894 13.4676 7.95328 13.3829L14.0577 7.27462C14.8589 6.46994 15.3 5.40139 15.3 4.26443C15.3032 3.12747 14.8653 2.05891 14.0642 1.25424ZM13.4414 6.65238L7.64514 12.4512L1.86183 6.64261C1.22609 6.00408 0.875784 5.15706 0.875784 4.25466C0.875784 3.35225 1.22285 2.50523 1.85859 1.86996C2.49109 1.2347 3.33442 0.882858 4.22965 0.882858C5.12812 0.882858 5.97469 1.2347 6.61043 1.87322L7.34348 2.60948C7.51539 2.78214 7.7911 2.78214 7.96301 2.60948L8.68957 1.87974C9.32531 1.24121 10.1719 0.889373 11.0671 0.889373C11.9623 0.889373 12.8057 1.24121 13.4414 1.87648C14.0772 2.515 14.4242 3.36203 14.4242 4.26443C14.4275 5.16683 14.0772 6.01386 13.4414 6.65238Z" fill="white"/>
</svg>
