<svg width="16" height="14" viewBox="0 0 16 14" fill="none" xmlns="http://www.w3.org/2000/svg">
<path d="M10.8286 13.5083H4.47044C3.75141 13.5319 3.05089 13.304 2.52108 12.8741C1.99127 12.4442 1.67498 11.847 1.64094 11.2124V8.20259C1.64094 8.07466 1.69849 7.95198 1.80093 7.86152C1.90337 7.77107 2.04231 7.72025 2.18718 7.72025C2.33205 7.72025 2.47099 7.77107 2.57342 7.86152C2.67586 7.95198 2.73341 8.07466 2.73341 8.20259V11.2124C2.76699 11.5913 2.96799 11.9432 3.293 12.1923C3.61801 12.4414 4.04094 12.5676 4.47044 12.5437H10.8286C11.2581 12.5676 11.6811 12.4414 12.0061 12.1923C12.3311 11.9432 12.5321 11.5913 12.5657 11.2124V8.20259C12.5657 8.07466 12.6232 7.95198 12.7256 7.86152C12.8281 7.77107 12.967 7.72025 13.1119 7.72025C13.2568 7.72025 13.3957 7.77107 13.4981 7.86152C13.6006 7.95198 13.6581 8.07466 13.6581 8.20259V11.2124C13.6241 11.847 13.3078 12.4442 12.778 12.8741C12.2482 13.304 11.5477 13.5319 10.8286 13.5083V13.5083ZM15.1384 7.09803C15.1896 7.05319 15.2303 6.99984 15.258 6.94106C15.2857 6.88229 15.3 6.81924 15.3 6.75557C15.3 6.69189 15.2857 6.62885 15.258 6.57007C15.2303 6.51129 15.1896 6.45794 15.1384 6.4131L8.03736 0.142676C7.98658 0.0974665 7.92617 0.0615831 7.8596 0.0370953C7.79304 0.0126075 7.72164 0 7.64953 0C7.57742 0 7.50603 0.0126075 7.43946 0.0370953C7.3729 0.0615831 7.31249 0.0974665 7.26171 0.142676L0.160643 6.4131C0.0577851 6.50393 0 6.62712 0 6.75557C0 6.88401 0.0577851 7.0072 0.160643 7.09803C0.263501 7.18885 0.403007 7.23988 0.548471 7.23988C0.693934 7.23988 0.83344 7.18885 0.936298 7.09803L7.64953 1.16524L14.3628 7.09803C14.4135 7.14324 14.474 7.17912 14.5405 7.20361C14.6071 7.2281 14.6785 7.2407 14.7506 7.2407C14.8227 7.2407 14.8941 7.2281 14.9607 7.20361C15.0272 7.17912 15.0876 7.14324 15.1384 7.09803Z" fill="#FFF7F7"/>
</svg>
