<svg width="21" height="25" viewBox="0 0 21 25" fill="none" xmlns="http://www.w3.org/2000/svg">
<path d="M10.2711 12.0426C11.9255 12.0426 13.3581 11.4492 14.5286 10.2785C15.6992 9.10797 16.2926 7.67574 16.2926 6.02112C16.2926 4.36707 15.6992 2.93465 14.5285 1.76373C13.3577 0.593376 11.9253 0 10.2711 0C8.61643 0 7.1842 0.593376 6.01366 1.76392C4.84312 2.93446 4.24956 4.36687 4.24956 6.02112C4.24956 7.67574 4.84312 9.10816 6.01385 10.2787C7.18459 11.4491 8.617 12.0426 10.2711 12.0426V12.0426Z" fill="black"/>
<path d="M20.807 19.2237C20.7732 18.7366 20.705 18.2052 20.6044 17.644C20.503 17.0787 20.3723 16.5443 20.2159 16.0558C20.0544 15.5509 19.8346 15.0523 19.563 14.5745C19.2811 14.0786 18.95 13.6468 18.5785 13.2915C18.1899 12.9197 17.7142 12.6209 17.1642 12.4028C16.616 12.186 16.0085 12.0761 15.3587 12.0761C15.1035 12.0761 14.8567 12.1808 14.38 12.4912C14.0867 12.6825 13.7435 12.9037 13.3605 13.1484C13.0331 13.3571 12.5894 13.5526 12.0414 13.7296C11.5068 13.9026 10.964 13.9903 10.4282 13.9903C9.89242 13.9903 9.34979 13.9026 8.81459 13.7296C8.26718 13.5528 7.82353 13.3573 7.49642 13.1486C7.11705 12.9062 6.77373 12.6849 6.476 12.491C5.99992 12.1806 5.75292 12.0759 5.49772 12.0759C4.8477 12.0759 4.2404 12.186 3.69242 12.403C3.14273 12.6207 2.66684 12.9195 2.27794 13.2917C1.90658 13.6472 1.57527 14.0788 1.29375 14.5745C1.02233 15.0523 0.802609 15.5507 0.640867 16.056C0.484655 16.5444 0.354003 17.0787 0.252532 17.644C0.152015 18.2044 0.0837323 18.736 0.0499724 19.2243C0.0167846 19.7026 0 20.1991 0 20.7005C0 22.0055 0.414847 23.062 1.23291 23.8412C2.04085 24.61 3.10992 25.0001 4.40996 25.0001H16.4476C17.7476 25.0001 18.8163 24.6102 19.6244 23.8412C20.4427 23.0626 20.8575 22.0059 20.8575 20.7004C20.8573 20.1966 20.8404 19.6998 20.807 19.2237V19.2237Z" fill="black"/>
</svg>
