<svg width="16" height="14" viewBox="0 0 16 14" fill="none" xmlns="http://www.w3.org/2000/svg">
<path d="M7.64997 6.43333C8.37045 6.43333 9.07475 6.24468 9.67381 5.89123C10.2729 5.53778 10.7398 5.0354 11.0155 4.44763C11.2912 3.85986 11.3634 3.2131 11.2228 2.58913C11.0822 1.96516 10.7353 1.392 10.2258 0.942141C9.71637 0.492282 9.06729 0.185925 8.36065 0.0618088C7.65401 -0.062307 6.92156 0.00139373 6.25592 0.244856C5.59028 0.488318 5.02135 0.900606 4.62107 1.42958C4.22079 1.95856 4.00714 2.58047 4.00714 3.21667C4.00714 4.06978 4.39094 4.88795 5.0741 5.49119C5.75726 6.09444 6.68383 6.43333 7.64997 6.43333V6.43333ZM7.64997 0.643335C8.22635 0.643335 8.78979 0.794258 9.26904 1.07702C9.74829 1.35978 10.1218 1.76168 10.3424 2.2319C10.563 2.70211 10.6207 3.21952 10.5082 3.7187C10.3958 4.21788 10.1182 4.6764 9.71066 5.03629C9.30309 5.39618 8.78382 5.64126 8.21851 5.74056C7.6532 5.83985 7.06724 5.78889 6.53473 5.59412C6.00222 5.39935 5.54707 5.06952 5.22685 4.64634C4.90662 4.22315 4.73571 3.72563 4.73571 3.21667C4.73571 2.53418 5.04274 1.87964 5.58927 1.39705C6.1358 0.914453 6.87706 0.643335 7.64997 0.643335V0.643335Z" fill="#010101"/>
<path d="M8.42225 7.07666H6.87769C5.97163 7.07919 5.07501 7.23928 4.23902 7.54779C3.40303 7.8563 2.64404 8.30719 2.00539 8.87471C1.36674 9.44223 0.860935 10.1153 0.516855 10.8554C0.172776 11.5955 -0.00284011 12.3883 3.47329e-05 13.1883C3.47329e-05 13.2736 0.0384145 13.3555 0.106731 13.4158C0.175047 13.4761 0.267704 13.51 0.364317 13.51H14.9356C15.0367 13.5019 15.1306 13.4601 15.1982 13.3933C15.2658 13.3264 15.3022 13.2394 15.2999 13.1497C15.2961 11.5401 14.5702 9.99736 13.2812 8.85918C11.9923 7.72099 10.2451 7.08006 8.42225 7.07666V7.07666ZM0.7286 12.8667C0.814207 11.4784 1.49822 10.1717 2.6403 9.21471C3.78237 8.25768 5.29592 7.72287 6.8704 7.71999H8.41496C9.99196 7.71958 11.5092 8.25293 12.6543 9.21029C13.7995 10.1677 14.4856 11.4762 14.5713 12.8667H0.7286Z" fill="#010101"/>
</svg>
