<svg xmlns="http://www.w3.org/2000/svg" version="1.1" xmlns:xlink="http://www.w3.org/1999/xlink" xmlns:svgjs="http://svgjs.com/svgjs" width="512" height="512" x="0" y="0" viewBox="0 0 512 512" style="enable-background:new 0 0 512 512" xml:space="preserve" class=""><g><path d="m136.038 203.199s-35.951-110.978 10.941-131.298c4.689-25.791 21.948-28.917 30.512-32.825 3.875-10.942 24.195-35.169 82.81-31.261s58.616-.781 72.684-7.815c1.563 12.505 40.336 26.572 23.685 71.901 13.829 2.345 28.361 41.763 5.464 118.964-45.561.001-226.096 12.334-226.096 12.334z" fill="#240703" data-original="#240703"></path><g fill="#e09f67"><path d="m347.617 217.935 8.343-26.69s14.679-4.075 22.421 11.715-12.517 48.233-29.994 50.959c-4.844-12.351-.77-35.984-.77-35.984z" fill="#e09f67" data-original="#e09f67" class=""></path><path d="m152.394 217.935-8.343-26.69s-14.679-4.075-22.421 11.715 12.517 48.233 29.994 50.959c4.845-12.351.77-35.984.77-35.984z" fill="#e09f67" data-original="#e09f67" class=""></path><path d="m191.422 303.349h118.126v122.615h-118.126z" fill="#e09f67" data-original="#e09f67" class=""></path></g><g><path d="m190.801 303.349v19.99s23.142 52.83 69.821 52.83c22.404 0 38.062-8.799 48.305-17.95v-54.869h-118.126z" fill="#ce8a57" data-original="#ce8a57" class=""></path></g><path d="m355.376 218.007c.037-1.115.056-2.23.056-3.345 0-69.311 20.226-147.511-102.814-148.66-.566-.011-2.749-.027-2.754-.027s-2.189.016-2.755.027c-123.039 1.149-102.813 79.349-102.813 148.66 0 1.115.019 2.23.056 3.345s-.124 51.581 7.496 64.477c7.62 12.895 52.754 71.829 95.543 71.829.04-.039 4.982-.042 5.024 0 42.789 0 87.923-58.934 95.543-71.829s7.496-64.477 7.496-64.477z" fill="#e09f67" data-original="#e09f67" class=""></path><path d="m432.71 457.587c-2.198-54.772-44.347-67.423-69.654-70.064-6.949-.725-27.411-.696-41.505-.576l.013-.033c-8.183.069-14.229.169-14.229.169-1.071 18.336-22.861 28.172-56.928 28.83-34.067-.659-58.789-14.636-58.789-28.83 0 0-5.481-.094-13.013-.163l.013.033c-13.558-.124-33.798-.167-40.86.57-25.307 2.64-67.456 15.291-69.654 70.064-1.891 13.659 0 33.172 0 33.172s61.601 18.854 178.029 19.483c.867.014 7.681.014 8.548 0 116.428-.629 178.029-19.483 178.029-19.483s1.891-19.512 0-33.172z" fill="#15afbf" data-original="#15afbf" class=""></path><path d="m250.096 428.97-19.305 22.027 9.73 59.227h19.15l9.73-59.227z" fill="#091e26" data-original="#091e26"></path><path d="m266.684 420.014c0-10.265-9.66-13.804-16.584-13.817l-.001-.001c-.006 0-.013.001-.02.001-.006 0-.013-.001-.02-.001l-.001.001c-6.924.014-16.584 3.553-16.584 13.817 0 9.186 8.978 17.021 14.974 18.595.414.191 2.848.191 3.261 0 5.997-1.573 14.975-9.409 14.975-18.595z" fill="#091e26" data-original="#091e26"></path><path d="m250.096 405.952 59.452-39.537 13.152 20.412-36.302 49.3z" fill="#29ced6" data-original="#29ced6" class=""></path><path d="m250.096 405.952-58.674-39.537-13.93 20.412 36.302 49.3z" fill="#29ced6" data-original="#29ced6" class=""></path><path d="m362.134 190.866c0-34.388 21.546-133.271-112.57-133.271s-113.521 114.855-113.521 134.424c0 0 12.987-7.754 13.916 18.125 4.054-.693 4.803-8.352 4.038-20.153s0-56.122 0-56.122c7.832-11.95 15.04-26.246 18.773-39.304 9.378-.782 41.954 27.354 149.93 12.505 12.225 8.322 29.041 26.807 24.079 101.184-.147 2.207 2.008 1.89 3.273 1.89 3.953-15.825 5.778-19.826 12.082-19.278z" fill="#240703" data-original="#240703"></path></g></svg>